<mxfile host="app.diagrams.net" modified="2023-10-21T09:53:30.418Z" agent="Mozilla/5.0 (Macintosh; Intel Mac OS X 10_15_7) AppleWebKit/537.36 (KHTML, like Gecko) Chrome/117.0.0.0 Safari/537.36" etag="f9wfbPrhPhXP9YkX9ppM" version="21.2.1" type="device">
  <diagram name="ページ1" id="QckzKgCd7IyiDcifN4l4">
    <mxGraphModel dx="1592" dy="708" grid="1" gridSize="10" guides="1" tooltips="1" connect="1" arrows="1" fold="1" page="1" pageScale="1" pageWidth="827" pageHeight="1169" math="0" shadow="0">
      <root>
        <mxCell id="0" />
        <mxCell id="1" parent="0" />
        <mxCell id="VKu_HtebGTkHvjNNXUr4-1" value="お金を入れる" style="rounded=0;whiteSpace=wrap;html=1;" vertex="1" parent="1">
          <mxGeometry x="40" y="40" width="120" height="60" as="geometry" />
        </mxCell>
        <mxCell id="VKu_HtebGTkHvjNNXUr4-5" value="" style="edgeStyle=orthogonalEdgeStyle;rounded=0;orthogonalLoop=1;jettySize=auto;html=1;exitX=0.5;exitY=1;exitDx=0;exitDy=0;" edge="1" parent="1" source="VKu_HtebGTkHvjNNXUr4-24" target="VKu_HtebGTkHvjNNXUr4-4">
          <mxGeometry relative="1" as="geometry">
            <mxPoint x="100" y="270" as="sourcePoint" />
          </mxGeometry>
        </mxCell>
        <mxCell id="VKu_HtebGTkHvjNNXUr4-4" value="金額が表示される&lt;br&gt;かつ&lt;br&gt;ボタンが光る" style="rounded=0;whiteSpace=wrap;html=1;" vertex="1" parent="1">
          <mxGeometry x="40" y="460" width="120" height="60" as="geometry" />
        </mxCell>
        <mxCell id="VKu_HtebGTkHvjNNXUr4-8" value="" style="edgeStyle=orthogonalEdgeStyle;rounded=0;orthogonalLoop=1;jettySize=auto;html=1;" edge="1" parent="1" source="VKu_HtebGTkHvjNNXUr4-6">
          <mxGeometry relative="1" as="geometry">
            <mxPoint x="300" y="180" as="targetPoint" />
          </mxGeometry>
        </mxCell>
        <mxCell id="VKu_HtebGTkHvjNNXUr4-6" value="ボタンを押す" style="rounded=0;whiteSpace=wrap;html=1;" vertex="1" parent="1">
          <mxGeometry x="240" y="40" width="120" height="60" as="geometry" />
        </mxCell>
        <mxCell id="VKu_HtebGTkHvjNNXUr4-10" value="" style="edgeStyle=orthogonalEdgeStyle;rounded=0;orthogonalLoop=1;jettySize=auto;html=1;" edge="1" parent="1" source="VKu_HtebGTkHvjNNXUr4-7" target="VKu_HtebGTkHvjNNXUr4-9">
          <mxGeometry relative="1" as="geometry" />
        </mxCell>
        <mxCell id="VKu_HtebGTkHvjNNXUr4-7" value="商品が出てくる" style="rounded=0;whiteSpace=wrap;html=1;" vertex="1" parent="1">
          <mxGeometry x="240" y="320" width="120" height="60" as="geometry" />
        </mxCell>
        <mxCell id="VKu_HtebGTkHvjNNXUr4-9" value="ルーレット起動" style="rounded=0;whiteSpace=wrap;html=1;" vertex="1" parent="1">
          <mxGeometry x="240" y="460" width="120" height="60" as="geometry" />
        </mxCell>
        <mxCell id="VKu_HtebGTkHvjNNXUr4-12" value="" style="edgeStyle=orthogonalEdgeStyle;rounded=0;orthogonalLoop=1;jettySize=auto;html=1;" edge="1" parent="1" source="VKu_HtebGTkHvjNNXUr4-11" target="VKu_HtebGTkHvjNNXUr4-7">
          <mxGeometry relative="1" as="geometry" />
        </mxCell>
        <mxCell id="VKu_HtebGTkHvjNNXUr4-15" value="" style="edgeStyle=orthogonalEdgeStyle;rounded=0;orthogonalLoop=1;jettySize=auto;html=1;" edge="1" parent="1" source="VKu_HtebGTkHvjNNXUr4-11" target="VKu_HtebGTkHvjNNXUr4-14">
          <mxGeometry relative="1" as="geometry" />
        </mxCell>
        <mxCell id="VKu_HtebGTkHvjNNXUr4-11" value="金額が足りているか？&lt;br&gt;ボタンが光っているか？" style="rhombus;whiteSpace=wrap;html=1;" vertex="1" parent="1">
          <mxGeometry x="220" y="180" width="160" height="80" as="geometry" />
        </mxCell>
        <mxCell id="VKu_HtebGTkHvjNNXUr4-13" value="Yes" style="text;html=1;strokeColor=none;fillColor=none;align=center;verticalAlign=middle;whiteSpace=wrap;rounded=0;" vertex="1" parent="1">
          <mxGeometry x="310" y="270" width="60" height="30" as="geometry" />
        </mxCell>
        <mxCell id="VKu_HtebGTkHvjNNXUr4-14" value="なにも起こらない" style="whiteSpace=wrap;html=1;" vertex="1" parent="1">
          <mxGeometry x="480" y="190" width="120" height="60" as="geometry" />
        </mxCell>
        <mxCell id="VKu_HtebGTkHvjNNXUr4-16" value="No" style="text;html=1;strokeColor=none;fillColor=none;align=center;verticalAlign=middle;whiteSpace=wrap;rounded=0;" vertex="1" parent="1">
          <mxGeometry x="384" y="190" width="60" height="30" as="geometry" />
        </mxCell>
        <mxCell id="VKu_HtebGTkHvjNNXUr4-19" value="" style="edgeStyle=orthogonalEdgeStyle;rounded=0;orthogonalLoop=1;jettySize=auto;html=1;" edge="1" parent="1" source="VKu_HtebGTkHvjNNXUr4-17" target="VKu_HtebGTkHvjNNXUr4-18">
          <mxGeometry relative="1" as="geometry" />
        </mxCell>
        <mxCell id="VKu_HtebGTkHvjNNXUr4-17" value="お釣りレバーを押す" style="rounded=0;whiteSpace=wrap;html=1;" vertex="1" parent="1">
          <mxGeometry x="640" y="40" width="120" height="60" as="geometry" />
        </mxCell>
        <mxCell id="VKu_HtebGTkHvjNNXUr4-21" value="" style="edgeStyle=orthogonalEdgeStyle;rounded=0;orthogonalLoop=1;jettySize=auto;html=1;" edge="1" parent="1" source="VKu_HtebGTkHvjNNXUr4-18" target="VKu_HtebGTkHvjNNXUr4-20">
          <mxGeometry relative="1" as="geometry" />
        </mxCell>
        <mxCell id="VKu_HtebGTkHvjNNXUr4-18" value="ボタンが光るのが消える" style="rounded=0;whiteSpace=wrap;html=1;" vertex="1" parent="1">
          <mxGeometry x="640" y="180" width="120" height="60" as="geometry" />
        </mxCell>
        <mxCell id="VKu_HtebGTkHvjNNXUr4-23" value="" style="edgeStyle=orthogonalEdgeStyle;rounded=0;orthogonalLoop=1;jettySize=auto;html=1;" edge="1" parent="1" source="VKu_HtebGTkHvjNNXUr4-20" target="VKu_HtebGTkHvjNNXUr4-22">
          <mxGeometry relative="1" as="geometry" />
        </mxCell>
        <mxCell id="VKu_HtebGTkHvjNNXUr4-20" value="金額表示が消える" style="rounded=0;whiteSpace=wrap;html=1;" vertex="1" parent="1">
          <mxGeometry x="640" y="320" width="120" height="60" as="geometry" />
        </mxCell>
        <mxCell id="VKu_HtebGTkHvjNNXUr4-22" value="お金が戻ってくる" style="rounded=0;whiteSpace=wrap;html=1;" vertex="1" parent="1">
          <mxGeometry x="640" y="460" width="120" height="60" as="geometry" />
        </mxCell>
        <mxCell id="VKu_HtebGTkHvjNNXUr4-25" value="" style="edgeStyle=orthogonalEdgeStyle;rounded=0;orthogonalLoop=1;jettySize=auto;html=1;" edge="1" parent="1" source="VKu_HtebGTkHvjNNXUr4-1" target="VKu_HtebGTkHvjNNXUr4-24">
          <mxGeometry relative="1" as="geometry">
            <mxPoint x="100" y="100" as="sourcePoint" />
            <mxPoint x="100" y="320" as="targetPoint" />
          </mxGeometry>
        </mxCell>
        <mxCell id="VKu_HtebGTkHvjNNXUr4-24" value="正当なお金？" style="rhombus;whiteSpace=wrap;html=1;" vertex="1" parent="1">
          <mxGeometry x="27.5" y="180" width="145" height="80" as="geometry" />
        </mxCell>
        <mxCell id="VKu_HtebGTkHvjNNXUr4-28" value="" style="edgeStyle=orthogonalEdgeStyle;rounded=0;orthogonalLoop=1;jettySize=auto;html=1;" edge="1" parent="1" source="VKu_HtebGTkHvjNNXUr4-26" target="VKu_HtebGTkHvjNNXUr4-27">
          <mxGeometry relative="1" as="geometry" />
        </mxCell>
        <mxCell id="VKu_HtebGTkHvjNNXUr4-26" value="カメラに人が映る" style="rounded=0;whiteSpace=wrap;html=1;" vertex="1" parent="1">
          <mxGeometry x="840" y="40" width="120" height="60" as="geometry" />
        </mxCell>
        <mxCell id="VKu_HtebGTkHvjNNXUr4-27" value="おすすめ商品を表示する" style="rounded=0;whiteSpace=wrap;html=1;" vertex="1" parent="1">
          <mxGeometry x="840" y="180" width="120" height="60" as="geometry" />
        </mxCell>
        <mxCell id="VKu_HtebGTkHvjNNXUr4-29" value="金額" style="text;html=1;strokeColor=none;fillColor=none;align=center;verticalAlign=middle;whiteSpace=wrap;rounded=0;" vertex="1" parent="1">
          <mxGeometry x="920" y="330" width="40" height="30" as="geometry" />
        </mxCell>
        <mxCell id="VKu_HtebGTkHvjNNXUr4-30" value="自販機の状態" style="text;html=1;strokeColor=none;fillColor=none;align=center;verticalAlign=middle;whiteSpace=wrap;rounded=0;" vertex="1" parent="1">
          <mxGeometry x="920" y="280" width="80" height="30" as="geometry" />
        </mxCell>
        <mxCell id="VKu_HtebGTkHvjNNXUr4-31" value="カメラがスタンバイ状態かどうか" style="text;html=1;strokeColor=none;fillColor=none;align=center;verticalAlign=middle;whiteSpace=wrap;rounded=0;" vertex="1" parent="1">
          <mxGeometry x="920" y="400" width="190" height="30" as="geometry" />
        </mxCell>
        <mxCell id="VKu_HtebGTkHvjNNXUr4-32" value="商品の状態" style="text;html=1;strokeColor=none;fillColor=none;align=center;verticalAlign=middle;whiteSpace=wrap;rounded=0;" vertex="1" parent="1">
          <mxGeometry x="920" y="440" width="80" height="30" as="geometry" />
        </mxCell>
        <mxCell id="VKu_HtebGTkHvjNNXUr4-33" value="商品の在庫" style="text;html=1;strokeColor=none;fillColor=none;align=center;verticalAlign=middle;whiteSpace=wrap;rounded=0;" vertex="1" parent="1">
          <mxGeometry x="950" y="470" width="80" height="30" as="geometry" />
        </mxCell>
        <mxCell id="VKu_HtebGTkHvjNNXUr4-34" value="商品の金額" style="text;html=1;strokeColor=none;fillColor=none;align=center;verticalAlign=middle;whiteSpace=wrap;rounded=0;" vertex="1" parent="1">
          <mxGeometry x="950" y="500" width="80" height="30" as="geometry" />
        </mxCell>
        <mxCell id="VKu_HtebGTkHvjNNXUr4-35" value="商品が十分冷えているかどうか" style="text;html=1;strokeColor=none;fillColor=none;align=center;verticalAlign=middle;whiteSpace=wrap;rounded=0;" vertex="1" parent="1">
          <mxGeometry x="950" y="530" width="180" height="30" as="geometry" />
        </mxCell>
        <mxCell id="VKu_HtebGTkHvjNNXUr4-36" value="投入金額" style="text;html=1;strokeColor=none;fillColor=none;align=center;verticalAlign=middle;whiteSpace=wrap;rounded=0;" vertex="1" parent="1">
          <mxGeometry x="950" y="350" width="60" height="30" as="geometry" />
        </mxCell>
        <mxCell id="VKu_HtebGTkHvjNNXUr4-38" value="コインの枚数" style="text;html=1;strokeColor=none;fillColor=none;align=center;verticalAlign=middle;whiteSpace=wrap;rounded=0;" vertex="1" parent="1">
          <mxGeometry x="950" y="370" width="90" height="30" as="geometry" />
        </mxCell>
        <mxCell id="VKu_HtebGTkHvjNNXUr4-39" value="&lt;div style=&quot;text-align: center;&quot;&gt;&lt;span style=&quot;background-color: initial;&quot;&gt;ボタンがオンかどうか&lt;/span&gt;&lt;/div&gt;" style="text;whiteSpace=wrap;html=1;" vertex="1" parent="1">
          <mxGeometry x="920" y="560" width="125" height="40" as="geometry" />
        </mxCell>
      </root>
    </mxGraphModel>
  </diagram>
</mxfile>
